<svg id="Capa_1" data-name="Capa 1" xmlns="http://www.w3.org/2000/svg" xmlns:xlink="http://www.w3.org/1999/xlink" viewBox="0 0 1439.96406 464.61297"><defs><style>.cls-1{fill:#96d7fd;}.cls-2{fill:#99dffc;}.cls-3{fill:url(#Degradado_sin_nombre_47);}.cls-4{fill:#47b6f4;}.cls-5{fill:url(#Degradado_sin_nombre_6);}</style><linearGradient id="Degradado_sin_nombre_47" x1="533.25534" y1="93.04169" x2="533.25534" y2="351.69808" gradientUnits="userSpaceOnUse"><stop offset="0" stop-color="#40a8fd"/><stop offset="1" stop-color="#47b6f4"/></linearGradient><linearGradient id="Degradado_sin_nombre_6" x1="720.09244" y1="77.59806" x2="720.09244" y2="468.51849" gradientUnits="userSpaceOnUse"><stop offset="0" stop-color="#0ca0f3"/><stop offset="1" stop-color="#69c2f4"/></linearGradient></defs><path class="cls-1" d="M1440.14894,56.99046s-70.46809-32.68085-206.80851-36.766-348.51064,41.3617-558.383,194.55319V372.56492h765.19149Z" transform="translate(-0.18488)"/><path class="cls-2" d="M.18488,7.45854S49.93617-3.7755,96.65957,1.33088,183.97872,21.75641,252.14894,65.033s163.766,141.31915,248.09574,260.04255H.18488Z" transform="translate(-0.18488)"/><path class="cls-3" d="M66.0213,60.05425V464.613h934.46808V447.62872C654.27661,145.84148,372.40424,50.0968,259.80853,37.84148,147.21277,25.58617,93.9787,45.1181,66.0213,60.05425Z" transform="translate(-0.18488)"/><path class="cls-4" d="M1024.48938,98.86279C817.17023,180.05425,524.06383,372.56493,524.06383,372.56493v92.048h827.74476V125.92663S1231.80859,17.67132,1024.48938,98.86279Z" transform="translate(-0.18488)"/><path class="cls-5" d="M1440,41.54381s-114.74468-5.617-215.85106,58.7234S914.58913,271.4587,720.09244,271.4587,380.82979,174.94806,295.80851,133.58636,92.90167,45.11828.18488,23.28849V464.613H1440Z" transform="translate(-0.18488)"/></svg>