<svg id="Capa_1" data-name="Capa 1" xmlns="http://www.w3.org/2000/svg" xmlns:xlink="http://www.w3.org/1999/xlink" viewBox="0 0 1439.81513 724.21625"><defs><style>.cls-1{fill:url(#Degradado_sin_nombre_6);}.cls-2{fill:#21c4f8;opacity:0.4;}.cls-3{fill:url(#Degradado_sin_nombre_27);}</style><linearGradient id="Degradado_sin_nombre_6" x1="0.18487" y1="361.89189" x2="1440" y2="361.89189" gradientUnits="userSpaceOnUse"><stop offset="0" stop-color="#0ca0f3"/><stop offset="1" stop-color="#69c2f4"/></linearGradient><linearGradient id="Degradado_sin_nombre_27" x1="0.18488" y1="183.71109" x2="406.57617" y2="183.71109" gradientUnits="userSpaceOnUse"><stop offset="0" stop-color="#0fa7f4"/><stop offset="1" stop-color="#27b1f4"/></linearGradient></defs><path class="cls-1" d="M1440,724s-174.19043-67.76724-347.90362-72.53958-367.47022,16.226-449.55448,20.9983-136.48894,11.45362-285.386,10.49915S46.95381,650.75979.18487,650.75979V-.21622H1440Z" transform="translate(-0.18487 0.21625)"/><path class="cls-2" d="M509.91663,603.34491c-184.35456,0-318.93378,22.8493-454.32715,52.41473,72.15552,8.86579,190.3197,26.48511,301.56646,27.19825,148.897.95446,203.3017-5.72681,285.386-10.49915,45.83063-2.66455,126.47955-10.38641,219.00983-15.85779C803.19763,639.11029,664.92462,603.34491,509.91663,603.34491Z" transform="translate(-0.18487 0.21625)"/><path class="cls-2" d="M173.34747,592.227A1300.8435,1300.8435,0,0,0,.18488,588.6593v62.10047c46.76892,0,208.074,31.24365,356.97106,32.19812,86.41016.55389,140.99427-1.464,187.63508-4.18781C419.85889,632.21716,276.44543,601.44714,173.34747,592.227Z" transform="translate(-0.18487 0.21625)"/><path class="cls-3" d="M.18488,314.78186a250.87467,250.87467,0,0,0,154.41174,52.85657c139.16449,0,251.97955-112.81513,251.97955-251.97956A250.878,250.878,0,0,0,378.39722-.21625H.18488Z" transform="translate(-0.18487 0.21625)"/></svg>