<svg id="Capa_1" data-name="Capa 1" xmlns="http://www.w3.org/2000/svg" viewBox="0 0 170.59059 43.19468"><defs><style>.cls-1{fill:#fff;}</style></defs><ellipse class="cls-1" cx="16.04039" cy="7.7794" rx="5.79184" ry="7.95326" transform="translate(-1.66352 5.65798) rotate(-19.12725)"/><ellipse class="cls-1" cx="5.2104" cy="17.70689" rx="4.63348" ry="6.36261" transform="translate(-8.8299 5.69816) rotate(-33.1272)"/><ellipse class="cls-1" cx="34.44899" cy="7.7794" rx="7.95327" ry="5.79183" transform="translate(15.81128 37.75012) rotate(-70.8728)"/><ellipse class="cls-1" cx="45.27897" cy="17.70689" rx="6.36262" ry="4.63347" transform="translate(5.70513 45.92183) rotate(-56.8726)"/><path class="cls-1" d="M25.29018,18.32734c-10.42039,0-18.86779,11.92856-18.86779,20.69638,0,7.18023,5.66578,3.3255,13.44041,1.69391q-.18608-.14006-.37783-.27726C9.85911,33.57854,14.3365,27.67789,14.3365,27.67789l.00661.00269a6.47835,6.47835,0,0,1,10.973-.08715,6.48222,6.48222,0,0,1,10.07-.99964l.00111-.00062a4.3927,4.3927,0,0,1,.35616.39649c.0282.03388.05486.06919.08258.104.052.067.107.14087.16374.22077a6.46751,6.46751,0,0,1,.84219,1.569c.02821.07342.05531.14924.08178.226.01735.05249.03657.10418.05265.15747.78813,2.48163.5128,6.51115-5.61146,11.31809q-.13416.10533-.26622.21241c7.58315,1.67211,13.06937,5.29182,13.06937-1.7737C44.158,30.2559,35.71056,18.32734,25.29018,18.32734Z" transform="translate(0 -0.02741)"/><path class="cls-1" d="M66.06355,33.10416a3.6062,3.6062,0,0,1-.21675-.41152c-.06287-.13981-.124-.28489-.18334-.43262L59.96593,17.34329a.287.287,0,0,0-.01671-.10024.24272.24272,0,0,1-.01671-.08882q0-.3106.41064-.31083h3.57662a.576.576,0,0,1,.57772.42207l3.38756,10.10731q.45505-1.26622.87185-2.52716.41679-1.25962.82172-2.52672.40559-1.26621.82216-2.52671.41613-1.26028.87184-2.52672a.59736.59736,0,0,1,.61113-.42207h3.49836a.54372.54372,0,0,1,.361.09408.32.32,0,0,1,.10552.25017.44651.44651,0,0,1-.011.12222v.03342L70.10621,32.26c-.03693.10376-.08134.21807-.13322.34381a2.3276,2.3276,0,0,1-.17762.35,1.11276,1.11276,0,0,1-.233.27259.45841.45841,0,0,1-.30029.11079H66.519A.45209.45209,0,0,1,66.06355,33.10416Z" transform="translate(0 -0.02741)"/><path class="cls-1" d="M87.01108,31.6489A7.39625,7.39625,0,0,1,84.81191,33.054a6.70712,6.70712,0,0,1-2.58783.50561A7.5577,7.5577,0,0,1,76.9706,31.466a7.39633,7.39633,0,0,1-1.6219-2.31612,6.98544,6.98544,0,0,1-.5997-2.89911,7.51151,7.51151,0,0,1,.91625-3.6096,7.27641,7.27641,0,0,1,1.06617-1.47153,6.74731,6.74731,0,0,1,1.40515-1.14971,6.926,6.926,0,0,1,1.68829-.74434,6.81057,6.81057,0,0,1,1.92175-.26644,6.56666,6.56666,0,0,1,1.78809.24445,6.96077,6.96077,0,0,1,1.62717.68851,7.08168,7.08168,0,0,1,1.39372,1.06617A7.20156,7.20156,0,0,1,87.64375,22.369a6.55448,6.55448,0,0,1,.70609,1.57706,6.03236,6.03236,0,0,1,.24972,1.727q0,.57771-.0167.94438a1.06771,1.06771,0,0,1-.17235.583.83849.83849,0,0,1-.51616.29985,5.06591,5.06591,0,0,1-1.06089.08353H78.83651a2.74976,2.74976,0,0,0,.44977,1.188,2.81239,2.81239,0,0,0,.783.76149,3.14765,3.14765,0,0,0,.944.40536,3.96715,3.96715,0,0,0,.94438.12223,4.25077,4.25077,0,0,0,.82172-.08354,5.782,5.782,0,0,0,.81645-.22246,4.61214,4.61214,0,0,0,.72192-.32183,2.38647,2.38647,0,0,0,.52759-.38339,2.34754,2.34754,0,0,1,.30556-.21631.54122.54122,0,0,1,.27215-.0721.52905.52905,0,0,1,.29413.10024,2.30357,2.30357,0,0,1,.339.28842l1.177,1.333a.72614.72614,0,0,1,.15564.26116.83853.83853,0,0,1,.03342.23829.61586.61586,0,0,1-.12223.38339A1.41183,1.41183,0,0,1,87.01108,31.6489Zm-5.34229-9.25218a2.12706,2.12706,0,0,0-.83887.17235,3.15847,3.15847,0,0,0-.76061.46076,4.10062,4.10062,0,0,0-1.09959,1.39987h5.67555a6.51216,6.51216,0,0,0-.50516-.80018,3.41727,3.41727,0,0,0-.62212-.64409,2.69183,2.69183,0,0,0-.79974-.43307A3.2102,3.2102,0,0,0,81.66879,22.39672Z" transform="translate(0 -0.02741)"/><path class="cls-1" d="M90.90953,17.032a.60875.60875,0,0,1,.22774-.5166,2.58984,2.58984,0,0,1,.64982-.32754l2.52188-.87756a.56589.56589,0,0,1,.10552-.011h.09408a.5817.5817,0,0,1,.54958.23873,1.24506,1.24506,0,0,1,.13893.62783l-.01143,3.05431h1.52209a.806.806,0,0,1,.57772.211.83505.83505,0,0,1,.22158.6331v2.14378a.91941.91941,0,0,1-.22158.68279.79323.79323,0,0,1-.57772.21675H95.18565l.01143,9.374a.81058.81058,0,0,1-.24445.63926.98605.98605,0,0,1-.67708.21631H91.7651a.756.756,0,0,1-.85557-.85557l-.01055-9.374H89.755q-.856,0-.85558-.89954V20.06433a.7511.7511,0,0,1,.85558-.84414h1.144Z" transform="translate(0 -0.02741)"/><path class="cls-1" d="M119.599,18.04278a.70074.70074,0,0,1,.27787.28886.46146.46146,0,0,1-.03342.42207l-1.87734,2.66565a.43572.43572,0,0,1-.26116.21675.49118.49118,0,0,1-.33853-.09452,4.23576,4.23576,0,0,0-1.19939-.63311,4.29346,4.29346,0,0,0-1.38844-.222,4.02208,4.02208,0,0,0-2.99847,1.2882,4.35894,4.35894,0,0,0-.867,1.39987,4.85238,4.85238,0,0,0,0,3.41527,4.31083,4.31083,0,0,0,.867,1.38844,4.048,4.048,0,0,0,2.99847,1.28292,4.309,4.309,0,0,0,2.60981-.867.51377.51377,0,0,1,.33326-.09936.45225.45225,0,0,1,.26643.1996l1.89933,2.732a.43589.43589,0,0,1,.03341.41152.71744.71744,0,0,1-.277.27786,8.83384,8.83384,0,0,1-2.2493,1.08244,8.316,8.316,0,0,1-2.53858.38338,8.39743,8.39743,0,0,1-4.28667-1.15542,8.53619,8.53619,0,0,1-1.71643-1.32689,8.62258,8.62258,0,0,1-1.32689-1.71027,8.296,8.296,0,0,1-.85557-2.02155,8.51771,8.51771,0,0,1,.85557-6.55355,8.61466,8.61466,0,0,1,1.32689-1.727,8.27589,8.27589,0,0,1,1.71643-1.32733,8.683,8.683,0,0,1,2.02682-.85513,8.60566,8.60566,0,0,1,4.77557.06639A8.65434,8.65434,0,0,1,119.599,18.04278Z" transform="translate(0 -0.02741)"/><path class="cls-1" d="M122.20882,15.888a.9908.9908,0,0,1,.17762-.5997.70527.70527,0,0,1,.61112-.24445h2.72061a.53.53,0,0,1,.2339.06112.83439.83439,0,0,1,.22686.17234.98791.98791,0,0,1,.1785.26644.81781.81781,0,0,1,.07211.34425V32.48161a.8201.8201,0,0,1-.23918.63926.88318.88318,0,0,1-.6164.21631h-2.5764a.75016.75016,0,0,1-.61112-.21631.98766.98766,0,0,1-.17762-.63926Z" transform="translate(0 -0.02741)"/><path class="cls-1" d="M129.08419,14.47759a.89573.89573,0,0,1,.20049-.6608.86164.86164,0,0,1,.62168-.19433h2.57639a.96276.96276,0,0,1,.62784.19433.80674.80674,0,0,1,.23917.6608v2.16576a.80193.80193,0,0,1-.06155.28886,1.225,1.225,0,0,1-.17235.29984.93339.93339,0,0,1-.27171.23874.70151.70151,0,0,1-.3614.09453h-2.57639q-.82173,0-.82217-.922Zm0,5.62016a.96077.96077,0,0,1,.20049-.61113.74008.74008,0,0,1,.62168-.25544h2.543a.79939.79939,0,0,1,.2893.06111.99012.99012,0,0,1,.28841.17763,1.15382,1.15382,0,0,1,.22774.27214.66939.66939,0,0,1,.095.35569V32.48161a.83027.83027,0,0,1-.2339.63926.94414.94414,0,0,1-.66652.21631h-2.543q-.82173,0-.82217-.85557Z" transform="translate(0 -0.02741)"/><path class="cls-1" d="M136.30339,19.42991a.68526.68526,0,0,1,.306-.1552,1.48828,1.48828,0,0,1,.30512-.03342h1.67686a.76667.76667,0,0,1,.34469.07211.7491.7491,0,0,1,.24445.19433,1.0259,1.0259,0,0,1,.16092.277c.04044.10332.07913.21016.117.32095l.233.97473a2.62956,2.62956,0,0,1,.53815-.70873,4.09814,4.09814,0,0,1,.9224-.66477,5.82934,5.82934,0,0,1,1.27149-.49286,6.209,6.209,0,0,1,1.61091-.19388,4.95067,4.95067,0,0,1,3.94813,1.81666,5.88392,5.88392,0,0,1,1.05518,1.96748,7.81554,7.81554,0,0,1,.3614,2.40273v7.27459a.96747.96747,0,0,1-.18377.63926.72347.72347,0,0,1-.583.21631h-2.56585a.99473.99473,0,0,1-.65509-.16091.84032.84032,0,0,1-.17762-.62783V25.31781a1.97677,1.97677,0,0,0-.21631-.90481,2.665,2.665,0,0,0-.57244-.75534,2.75127,2.75127,0,0,0-.80545-.5166,2.34876,2.34876,0,0,0-.91625-.189,2.07416,2.07416,0,0,0-.816.17762,2.73268,2.73268,0,0,0-.76676.49462,2.90861,2.90861,0,0,0-.58826.7439,2.17265,2.17265,0,0,0-.27259.92768V32.515a1.04456,1.04456,0,0,1-.07211.37811.60359.60359,0,0,1-.21631.28841.99846.99846,0,0,1-.27259.12223,1.17871,1.17871,0,0,1-.29369.03341h-2.51045a.78161.78161,0,0,1-.89954-.85557V20.06126a.80631.80631,0,0,1,.09409-.38734.70185.70185,0,0,1,.26115-.277Z" transform="translate(0 -0.02741)"/><path class="cls-1" d="M152.05283,14.47759a.89573.89573,0,0,1,.20049-.6608.86161.86161,0,0,1,.62167-.19433h2.5764a.96271.96271,0,0,1,.62783.19433.80671.80671,0,0,1,.23918.6608v2.16576a.80214.80214,0,0,1-.06155.28886,1.225,1.225,0,0,1-.17235.29984.93339.93339,0,0,1-.27171.23874.70153.70153,0,0,1-.3614.09453H152.875q-.82172,0-.82216-.922Zm0,5.62016a.96077.96077,0,0,1,.20049-.61113.74005.74005,0,0,1,.62167-.25544h2.543a.79934.79934,0,0,1,.28929.06111.99.99,0,0,1,.28842.17763,1.15382,1.15382,0,0,1,.22774.27214.66948.66948,0,0,1,.095.35569V32.48161a.83027.83027,0,0,1-.2339.63926.94416.94416,0,0,1-.66652.21631h-2.543q-.82172,0-.82216-.85557Z" transform="translate(0 -0.02741)"/><path class="cls-1" d="M168.01331,28.99424a.77932.77932,0,0,1,.29457-.13893,1.17146,1.17146,0,0,1,.21632-.02726.76049.76049,0,0,1,.34469.07738.91976.91976,0,0,1,.32183.33326l1.24423,1.87734a1.6819,1.6819,0,0,1,.10552.1996.466.466,0,0,1,.05012.17763.56458.56458,0,0,1-.16179.41679,2.1478,2.1478,0,0,1-.34909.28314,8.38861,8.38861,0,0,1-1.99429,1.01649,6.83392,6.83392,0,0,1-2.29326.38338,7.214,7.214,0,0,1-1.92746-.25588,7.08083,7.08083,0,0,1-1.727-.72719,7.46973,7.46973,0,0,1-1.46582-1.13344,6.9349,6.9349,0,0,1-1.13344-1.4711,7.57638,7.57638,0,0,1-.7272-1.74984,7.50854,7.50854,0,0,1,0-3.92615,7.439,7.439,0,0,1,.7272-1.7494,6.99626,6.99626,0,0,1,1.13344-1.46626,7.22424,7.22424,0,0,1,5.12026-2.10465,7.43817,7.43817,0,0,1,2.23786.32227,6.945,6.945,0,0,1,1.92746.95494l-.03341-.03341a1.30459,1.30459,0,0,1,.38866.339.79064.79064,0,0,1,.14421.48319.771.771,0,0,1-.13366.41108l-.98835,1.67686a.891.891,0,0,1-.75534.54473.77708.77708,0,0,1-.24445-.05012,1.39062,1.39062,0,0,1-.32183-.17234,5.08149,5.08149,0,0,0-1.0499-.52759,3.43387,3.43387,0,0,0-1.19323-.20532,2.93252,2.93252,0,0,0-1.28908.28314,3.03858,3.03858,0,0,0-1.00506.7716,3.63769,3.63769,0,0,0-.64982,1.13344,4.10488,4.10488,0,0,0,0,2.72676,3.37141,3.37141,0,0,0,.64982,1.10442,3.03763,3.03763,0,0,0,2.29414,1.01121,3.15752,3.15752,0,0,0,1.188-.22246A5.35671,5.35671,0,0,0,168.01331,28.99424Z" transform="translate(0 -0.02741)"/></svg>